# xmcd CD database file
#
# Track frame offsets:
#	150
#	36610
#	61792
#	76280
#	94315
#	113132
#	129472
#	149222
#
# Disc length: 2240 seconds
#
# Revision: 2
# Processed by: cddbd v1.5.2PL0 Copyright (c) Steve Scherf et al.
# Submitted via: CDex 1.51
#
DISCID=7408be08
DTITLE=Chico Hamilton feat. Lowell George and Little Feat - The Master
DYEAR=1973
DGENRE=Jazz
TTITLE0=One Day Five Months Ago
TTITLE1=Feels Good
TTITLE2=Fancy
TTITLE3=Stu
TTITLE4=Gengis
TTITLE5=Conquistadores '74
TTITLE6=Stacy
TTITLE7=I Can Hear The Grass Grow
EXTD=YEAR: 1973
EXTT0=
EXTT1=
EXTT2=
EXTT3=
EXTT4=
EXTT5=
EXTT6=
EXTT7=
PLAYORDER=
